<svg xmlns="http://www.w3.org/2000/svg" x="0px" y="0px"
     width="40" height="40"
     viewBox="0 0 252 252"
     style="fill:#34e79a;"><g fill="none" fill-rule="nonzero" stroke="none" stroke-width="1" stroke-linecap="butt" stroke-linejoin="miter" stroke-miterlimit="10" stroke-dasharray="" stroke-dashoffset="0" font-family="none" font-weight="none" font-size="none" text-anchor="none" style="mix-blend-mode: normal"><path d="M0,252v-252h252v252z" fill="none"></path><path d="M0,126c0,-69.58788 56.41212,-126 126,-126c69.58788,0 126,56.41212 126,126c0,69.58788 -56.41212,126 -126,126c-69.58788,0 -126,-56.41212 -126,-126zM126,246.96c66.80436,0 120.96,-54.15564 120.96,-120.96c0,-66.80436 -54.15564,-120.96 -120.96,-120.96c-66.80436,0 -120.96,54.15564 -120.96,120.96c0,66.80436 54.15564,120.96 120.96,120.96z" fill="#d9d9d9"></path><g fill="#43b58f"><g id="surface1"><path d="M140.16973,50.41071c-3.17344,0.1722 -6.34689,1.32842 -9.05293,3.34565l-38.17975,28.3396c-0.51661,-0.0492 -1.03321,-0.1968 -1.57442,-0.1968c-0.88561,0 -1.72202,0.24601 -2.55844,0.39361l0.59041,-4.13286c1.23002,-8.53632 -4.84627,-16.48223 -13.38259,-17.71225c-8.53632,-1.23001 -16.48223,4.84627 -17.71225,13.38259l-7.47851,50.77513c-1.23001,8.53632 -0.1476,18.25346 5.90408,26.37158l14.1698,18.69627c6.05169,8.11812 14.88321,13.03819 24.20675,14.36661l6.8881,6.6913c14.2682,14.2682 37.49094,14.2682 51.75914,0l42.70621,-42.50941c5.60888,-5.60888 6.8881,-14.61261 1.96803,-21.45151c-1.35302,-1.89423 -3.05044,-3.22265 -4.92007,-4.32966l3.34565,-3.34565c6.37149,-6.37149 6.37149,-16.85124 0,-23.22273c-1.23001,-1.23001 -2.65684,-2.21403 -4.13286,-2.95204c2.82904,-6.07629 1.84503,-13.50559 -3.14884,-18.49946c-3.17344,-3.17344 -7.4047,-4.72327 -11.61137,-4.72327c-2.46004,0 -4.84627,0.51661 -7.0849,1.57442c-0.73801,-1.37762 -1.59902,-2.77984 -2.75524,-3.93606c-3.12425,-3.12425 -7.25711,-4.67406 -11.41456,-4.72327c-0.51661,-1.91882 -1.30382,-3.81306 -2.55844,-5.51048c-2.68144,-3.61625 -6.64209,-5.87949 -10.82415,-6.49449c-1.03321,-0.1476 -2.09103,-0.246 -3.14884,-0.1968zM141.35054,63.00609c0.93482,0.14761 1.89423,0.68881 2.55844,1.57442c0.76261,1.00861 0.86101,2.09103 0.59041,3.14884l-37.39253,37.39253v-7.47851c0,-3.07504 -0.98401,-6.02708 -2.55844,-8.46252l34.04689,-25.38756c0.88561,-0.66421 1.82043,-0.93481 2.75524,-0.78721zM73.05997,72.84624c0.39361,-0.0984 0.73801,-0.0738 1.18082,0c1.79582,0.27061 2.82904,1.74663 2.55844,3.54245l-2.16483,15.74422l-0.1968,1.18082l0.39361,1.18082l0.78721,3.14884v51.36553c0,2.28783 0.1968,4.55106 0.59041,6.8881l-9.24973,-12.39858c-3.61625,-4.84627 -4.42806,-10.89796 -3.54245,-17.12184l7.2817,-50.77513c0.1968,-1.35302 1.18082,-2.43544 2.36163,-2.75524zM156.50436,75.01107c0.98401,0 1.99263,0.4182 2.75524,1.18082c1.54982,1.54982 1.54982,3.96065 0,5.51048l-28.73321,28.53641l8.85613,9.05293l35.81811,-35.81811c1.54982,-1.54982 3.96065,-1.54982 5.51048,0c1.54982,1.54982 1.54982,3.76385 0,5.31368l-35.81811,35.81811l8.85613,8.85613l28.73321,-28.53641c1.54982,-1.54982 3.76385,-1.54982 5.31368,0c1.54982,1.54982 1.54982,3.76385 0,5.31368l-14.1698,14.36661l-14.36661,14.36661l8.85613,8.85613l14.36661,-14.36661c1.69742,-1.69742 4.30506,-1.62362 5.90408,0.59041c0.95942,1.35302 0.54121,3.78846 -0.98401,5.31368l-42.50941,42.50941c-9.44653,9.44653 -24.60035,9.44653 -34.04689,0l-16.53144,-16.53144c-4.28046,-4.28046 -6.10089,-10.03694 -6.10089,-16.33463v-51.36553c0,-1.82042 1.32842,-3.14884 3.14884,-3.14884c1.82043,0 3.14884,1.32842 3.14884,3.14884v25.78117l2.75524,1.77123l0.1968,0.1968l4.32966,2.95204l3.54245,-3.73925l48.41349,-48.41349c0.76261,-0.76261 1.77123,-1.18082 2.75524,-1.18082z"></path></g></g><path d="M126,252c-69.58788,0 -126,-56.41212 -126,-126v0c0,-69.58788 56.41212,-126 126,-126v0c69.58788,0 126,56.41212 126,126v0c0,69.58788 -56.41212,126 -126,126z" fill="none"></path><path d="M126,246.96c-66.80436,0 -120.96,-54.15564 -120.96,-120.96v0c0,-66.80436 54.15564,-120.96 120.96,-120.96h0c66.80436,0 120.96,54.15564 120.96,120.96v0c0,66.80436 -54.15564,120.96 -120.96,120.96z" fill="none"></path><path d="M126,252c-69.58788,0 -126,-56.41212 -126,-126v0c0,-69.58788 56.41212,-126 126,-126v0c69.58788,0 126,56.41212 126,126v0c0,69.58788 -56.41212,126 -126,126z" fill="none"></path><path d="M126,246.96c-66.80436,0 -120.96,-54.15564 -120.96,-120.96v0c0,-66.80436 54.15564,-120.96 120.96,-120.96h0c66.80436,0 120.96,54.15564 120.96,120.96v0c0,66.80436 -54.15564,120.96 -120.96,120.96z" fill="none"></path><path d="M126,252c-69.58788,0 -126,-56.41212 -126,-126v0c0,-69.58788 56.41212,-126 126,-126v0c69.58788,0 126,56.41212 126,126v0c0,69.58788 -56.41212,126 -126,126z" fill="none"></path><path d="M126,246.96c-66.80436,0 -120.96,-54.15564 -120.96,-120.96v0c0,-66.80436 54.15564,-120.96 120.96,-120.96h0c66.80436,0 120.96,54.15564 120.96,120.96v0c0,66.80436 -54.15564,120.96 -120.96,120.96z" fill="none"></path><path d="M126,252c-69.58788,0 -126,-56.41212 -126,-126v0c0,-69.58788 56.41212,-126 126,-126v0c69.58788,0 126,56.41212 126,126v0c0,69.58788 -56.41212,126 -126,126z" fill="none"></path><path d="M126,246.96c-66.80436,0 -120.96,-54.15564 -120.96,-120.96v0c0,-66.80436 54.15564,-120.96 120.96,-120.96h0c66.80436,0 120.96,54.15564 120.96,120.96v0c0,66.80436 -54.15564,120.96 -120.96,120.96z" fill="none"></path><path d="M126,252c-69.58788,0 -126,-56.41212 -126,-126v0c0,-69.58788 56.41212,-126 126,-126v0c69.58788,0 126,56.41212 126,126v0c0,69.58788 -56.41212,126 -126,126z" fill="none"></path><path d="M126,246.96c-66.80436,0 -120.96,-54.15564 -120.96,-120.96v0c0,-66.80436 54.15564,-120.96 120.96,-120.96h0c66.80436,0 120.96,54.15564 120.96,120.96v0c0,66.80436 -54.15564,120.96 -120.96,120.96z" fill="none"></path></g></svg>